<mxfile host="app.diagrams.net" modified="2024-02-11T11:54:24.343Z" agent="Mozilla/5.0 (Windows NT 10.0; Win64; x64) AppleWebKit/537.36 (KHTML, like Gecko) Chrome/120.0.0.0 Safari/537.36" version="22.1.21" etag="zcMGcs_wA0COvh3-hMrT" type="github">
  <diagram name="Page-1" id="7tfH_ICbCOxBX_wqF_TH">
    <mxGraphModel>
      <root>
        <mxCell id="0" />
        <mxCell id="1" parent="0" />
      </root>
    </mxGraphModel>
  </diagram>
</mxfile>
